<?xml version="1.0" encoding="UTF-8"?>
<!DOCTYPE svg PUBLIC "-//W3C//DTD SVG 1.1//EN" "http://www.w3.org/Graphics/SVG/1.1/DTD/svg11.dtd">
<svg version="1.1" xmlns="http://www.w3.org/2000/svg" xmlns:xlink="http://www.w3.org/1999/xlink" x="0" y="0" width="437.144" height="468.905" viewBox="0, 0, 437.144, 468.905">
  <g id="Layer_1">
    <g>
      <path d="M173.02,34.926 C140.302,38.251 96.811,53.413 96.811,53.413 L138.174,51.285 C138.174,51.285 89.895,64.718 79.8,87.993 L114.513,80.678 C114.513,80.678 75.278,118.45 69.426,135.873 L94.164,122.839 C94.164,122.839 47.747,205.565 47.747,236.155 L84.056,199.846 C84.056,199.846 66.633,271.001 66.633,299.995 L66.633,328.989 L88.445,283.902 L68.096,363.835 L92.834,333.378 L95.76,410.385 L107.331,381.391 L120.365,436.586 L163.989,348.008 L294.728,308.773 L351.386,304.384 L325.172,259.35 L339.669,256.424 L304.69,196.441 L338.206,208.411 C338.206,208.411 322.246,185.136 304.823,164.787 L333.817,174.895 C333.817,174.895 291.656,112.518 274.233,102.277 L306.153,110.922 C306.153,110.922 272.77,68.761 249.495,60.116 L290.193,60.116 C290.193,60.116 246.968,42.826 231.141,42.294 L248.032,36.841 C248.165,37.24 205.605,31.734 173.02,34.926 z" fill="#BEAC83"/>
      <path d="M119.421,444.433 L106.52,390.169 L93.353,423.153 L90.294,340.693 L62.364,375.14 L79.122,309.172 L63.96,340.826 L63.96,299.995 C63.96,276.986 74.6,228.707 79.255,208.358 L45.074,242.539 L45.074,236.022 C45.074,210.486 75.93,150.902 87.501,129.356 L64.758,141.326 L66.886,134.942 C71.541,121.509 94.683,96.904 106.121,85.2 L75.132,91.77 L77.26,86.982 C83.777,72.086 104.259,61.313 119.554,55.062 L78.191,57.19 L95.88,50.939 C96.279,50.806 140.169,35.511 172.754,32.319 C179.803,31.654 187.783,31.255 196.561,31.255 C213.94,31.391 231.299,32.457 248.564,34.447 L260.534,36.043 L242.845,41.762 C261.864,46.284 289.927,57.323 291.39,57.988 L304.424,63.175 L260.68,63.175 C282.625,77.273 307.23,108.129 308.427,109.592 L313.481,115.976 L285.551,108.395 C305.368,128.212 334.628,171.437 336.091,173.698 L340.613,180.481 L313.082,170.905 C327.845,188.993 340.214,206.948 340.347,207.214 L345.135,214.13 L310.688,201.761 L343.805,258.552 L329.308,261.478 L355.775,306.964 L295.127,311.619 L165.851,350.455 z M107.983,372.4 L121.283,428.526 L162.114,345.667 L294.449,306.033 L346.851,302.043 L320.916,257.488 L335.413,254.562 L298.572,191.52 L331.024,203.091 C325.039,194.712 314.133,179.949 302.695,166.649 L296.178,159.068 L326.901,169.841 C315.463,153.482 286.203,112.651 272.903,104.804 L255.214,94.563 L298.705,106.4 C288.331,94.297 265.455,69.293 248.697,62.909 L234.732,57.722 L275.563,57.722 C261.598,52.668 240.85,45.619 231.141,45.353 L215.713,44.821 L235.131,38.57 C225.422,37.639 211.058,36.708 196.428,36.708 C187.783,36.708 179.936,37.107 173.153,37.772 C154.932,39.634 133.12,45.22 117.559,49.742 L162.38,47.348 L138.839,53.865 C138.44,54.131 98.673,65.303 84.974,84.189 L123.145,76.209 L116.362,82.726 C115.963,82.992 86.57,111.454 75.531,129.675 L100.934,116.242 L96.412,124.222 C96.013,125.02 56.645,195.244 50.926,229.026 L88.698,191.254 L86.437,200.564 C86.304,201.229 69.147,271.719 69.147,300.181 L69.147,317.471 L97.476,259.084 L73.536,352.849 L94.949,326.382 L97.609,397.803 z" fill="#63300F"/>
    </g>
    <g>
      <path d="M283.676,147.976 C283.011,135.075 307.084,130.686 300.301,116.987 C296.311,108.874 309.212,116.455 310.675,116.721 C317.192,117.785 324.374,114.859 329.827,119.647 C318.123,124.302 317.458,137.07 312.005,147.843 C309.345,153.296 307.483,159.015 305.222,164.601 C302.163,172.049 296.311,177.901 293.119,185.216 C293.923,184.968 294.532,184.308 294.715,183.487" fill="#F9EBCE"/>
      <path d="M281.681,147.71 C281.814,141.592 285.804,137.602 290.193,133.612 C293.385,130.819 296.976,128.159 298.971,124.302 C301.099,120.179 296.178,116.987 297.774,113.396 C299.37,109.539 304.557,112.066 307.217,113.13 C315.197,116.455 323.576,113.13 331.024,118.184 C331.581,118.612 331.858,119.311 331.747,120.005 C331.636,120.698 331.155,121.276 330.492,121.509 C319.32,126.829 317.059,141.592 312.271,151.966 C309.345,158.217 307.616,164.734 304.291,170.719 C301.365,175.906 297.508,180.561 294.848,186.014 C293.784,185.349 292.587,184.684 291.523,184.019 C292.087,183.474 292.62,182.896 293.119,182.29 C294.848,180.428 297.907,182.822 296.178,184.684 C295.62,185.197 295.129,185.778 294.715,186.413 C293.252,188.009 290.326,186.546 291.39,184.418 C294.449,178.167 298.838,172.581 302.296,166.463 C306.419,159.015 309.212,150.237 312.404,142.257 C316.527,132.149 318.788,122.706 329.162,117.652 C329.049,118.77 328.872,119.88 328.63,120.977 C321.98,116.455 314.931,120.578 308.281,117.652 C306.951,117.12 301.232,113.795 302.03,116.056 C302.988,117.948 303.445,120.054 303.36,122.174 C301.631,133.612 285.937,136.538 285.538,147.976 C285.538,150.769 281.548,150.104 281.681,147.71 z" fill="#63300F"/>
    </g>
    <g>
      <path d="M239.254,73.363 L265.056,55.674 C265.056,55.674 271.839,79.215 262.795,84.535 L253.751,89.855 z" fill="#F9EBCE"/>
      <path d="M253.219,93.313 L235.264,72.831 L266.652,51.285 L267.716,54.876 C268.514,57.536 274.765,80.678 264.258,86.796 z M243.244,73.895 L254.283,86.53 L261.465,82.407 C265.987,79.747 265.322,68.575 263.46,60.196 z" fill="#63300F"/>
    </g>
    <g>
      <path d="M354.831,294.143 C352.703,292.015 358.156,313.694 325.438,314.891 C321.315,287.094 329.428,261.691 316.261,238.416 C309.611,206.097 296.045,167.394 283.942,130.42 C267.982,81.077 237.126,57.802 212.122,56.738 C190.443,55.807 166.503,57.27 146.287,73.097 L109.978,58.866 C109.978,58.866 110.909,87.993 124.076,97.968 C124.741,98.5 125.273,98.899 125.805,99.298 C104.525,144.518 106.919,226.313 106.919,226.313 C106.919,226.313 109.845,324.999 122.879,355.589 C135.913,386.179 151.873,415.173 151.873,415.173 C151.873,415.173 157.725,436.985 153.336,447.093 C148.947,457.201 148.947,461.989 148.947,461.989 C148.947,461.989 148.947,467.442 159.055,465.979 C173.419,463.984 161.981,455.738 163.444,436.985 C164.907,418.232 172.621,385.115 195.763,371.682 C213.186,361.574 237.658,350.934 271.972,356.387 C299.237,360.776 324.773,323.403 336.211,322.605 C369.062,320.344 357.092,296.404 354.831,294.143 z" fill="#F9EBCE"/>
      <path d="M155.996,468.905 C148.282,468.905 146.287,464.383 146.287,461.989 C146.287,461.457 146.42,456.403 150.809,446.029 C154.001,438.581 150.942,422.222 149.346,416.104 C147.617,412.912 132.588,385.248 120.352,356.653 C107.185,326.063 104.259,230.436 104.126,226.446 C103.993,223.121 102.131,145.848 122.48,100.229 L122.48,100.229 C108.515,89.589 107.318,60.329 107.318,59.132 L107.185,55.009 L146.021,70.304 C165.439,55.807 187.65,54.078 202.945,54.078 C205.871,54.078 209.063,54.211 212.388,54.344 C235.663,55.408 269.179,75.757 286.735,129.888 C288.996,136.671 291.257,143.587 293.518,150.503 C303.36,180.428 313.601,211.284 319.054,237.751 C327.566,253.046 327.3,268.873 327.034,285.498 C326.686,294.42 326.997,303.355 327.965,312.231 C348.979,310.768 350.841,299.729 351.506,295.473 C351.772,294.143 352.171,291.483 354.698,291.483 C355.505,291.485 356.276,291.822 356.826,292.414 C358.422,294.01 363.875,303.719 360.55,312.63 C357.757,320.211 349.644,324.467 336.61,325.398 C333.285,325.664 327.167,330.851 320.65,336.437 C308.547,346.811 293.385,359.579 276.76,359.579 L276.76,359.579 C275.111,359.578 273.466,359.445 271.839,359.18 C265.854,358.241 259.808,357.752 253.751,357.717 C228.614,357.717 210.393,366.495 197.359,374.076 C171.291,389.238 167.035,429.404 166.37,437.251 C166.048,442.858 166.677,448.479 168.232,453.876 C169.296,458.398 170.227,461.856 168.232,464.782 C166.769,466.91 164.242,468.107 159.72,468.772 C158.27,468.772 157.06,468.905 155.996,468.905 z M113.05,62.856 C113.848,70.969 116.641,88.791 125.818,95.707 L129.409,98.367 L128.478,100.362 C107.73,144.518 109.725,225.382 109.725,226.18 C109.725,226.978 112.784,324.733 125.419,354.392 C138.32,384.45 154.147,413.444 154.28,413.71 L154.546,414.375 C154.812,415.306 160.531,437.118 155.876,448.024 C151.886,457.334 151.753,461.856 151.753,461.856 C151.886,462.255 152.817,463.319 156.009,463.319 C156.944,463.284 157.877,463.195 158.802,463.053 C162.26,462.521 163.324,461.723 163.59,461.324 C164.255,460.393 163.59,457.6 162.792,454.674 C161.147,448.748 160.473,442.594 160.797,436.453 C161.462,428.074 166.117,385.514 194.446,369.022 C207.081,361.707 226.898,351.865 253.631,351.865 C259.959,351.879 266.276,352.413 272.517,353.461 C273.835,353.682 275.171,353.771 276.507,353.727 C291.137,353.727 305.501,341.624 316.939,331.915 C324.786,325.265 331.037,319.945 336.091,319.679 C346.598,319.014 352.982,315.955 355.243,310.635 C356.282,307.626 356.329,304.362 355.376,301.325 C352.982,307.842 346.332,316.62 325.584,317.418 L323.19,317.551 L322.791,315.157 C321.195,304.783 321.328,294.808 321.461,285.099 C321.727,269.006 321.86,253.711 313.88,239.613 L313.614,238.815 C308.161,212.614 298.053,181.625 288.211,151.7 C285.95,144.784 283.689,137.868 281.428,131.085 C264.803,79.614 233.548,60.196 212.002,59.265 C208.677,59.132 205.618,58.999 202.692,58.999 C187.929,58.999 166.25,60.728 147.896,75.092 L146.699,76.023 z" fill="#63300F"/>
    </g>
    <g>
      <path d="M115.963,158.27 C114.367,145.502 89.895,145.236 94.284,130.606 C96.811,121.961 85.373,131.67 84.043,132.069 C77.792,134.197 70.211,132.601 65.689,138.32 C78.058,140.98 80.984,153.349 88.033,163.058 C91.624,167.979 94.417,173.299 97.609,178.353 C101.865,185.136 108.648,189.924 113.037,196.574 C112.177,196.509 111.442,195.931 111.175,195.111" fill="#F9EBCE"/>
      <path d="M117.825,157.552 C116.628,151.567 111.973,148.242 107.052,145.183 C103.328,142.922 99.471,141.06 96.811,137.469 C94.151,133.878 98.274,129.755 96.146,126.43 C94.018,123.105 89.23,126.297 86.836,127.76 C79.654,132.415 70.743,130.553 64.226,136.804 C63.747,137.317 63.587,138.05 63.809,138.716 C64.031,139.382 64.599,139.873 65.29,139.996 C77.26,143.321 81.915,157.552 88.432,166.862 C92.289,172.448 95.215,178.699 99.604,184.019 C103.461,188.674 107.983,192.531 111.441,197.452 L114.367,194.925 L112.505,193.462 C110.51,191.866 107.85,194.792 109.845,196.388 L111.707,197.851 C113.436,199.181 116.096,197.186 114.633,195.324 C110.51,189.605 105.323,184.95 100.934,179.497 C95.614,172.98 91.358,164.601 86.703,157.419 C80.851,148.242 77.127,139.198 65.955,136.139 C66.354,137.203 66.62,138.267 67.019,139.331 C72.738,133.745 80.452,136.671 86.437,132.548 C87.634,131.75 92.688,127.627 92.289,129.888 C91.67,131.915 91.579,134.066 92.023,136.139 C95.614,147.045 111.707,147.178 114.101,158.483 C114.633,161.276 118.357,159.946 117.825,157.552 z" fill="#63300F"/>
    </g>
    <path d="M209.063,127.361 C208.797,124.435 211.989,121.775 216.112,121.509 C220.235,121.243 223.693,123.371 223.959,126.43 C224.225,129.489 221.033,132.016 216.91,132.282 C212.787,132.548 209.196,130.42 209.063,127.361 z" fill="#63300F"/>
    <path d="M241.914,126.164 C241.648,122.706 247.234,119.381 254.15,118.982 C261.066,118.583 267.051,120.977 267.317,124.435 C267.583,127.893 261.997,131.218 255.081,131.617 C248.165,132.016 242.18,129.755 241.914,126.164 z" fill="#FCC0C2"/>
    <path d="M145.622,132.282 C145.356,128.824 150.942,125.499 157.858,125.1 C164.774,124.701 170.759,127.095 171.025,130.553 C171.291,134.011 165.705,137.336 158.789,137.735 C151.873,138.134 145.888,135.873 145.622,132.282 z" fill="#FCC0C2"/>
    <path d="M173.552,124.834 L173.419,125.1 L182.862,117.386 L167.434,108.874 L168.232,108.342 L195.364,115.657 L173.552,124.834 z" fill="#63300F"/>
    <path d="M249.229,117.386 L229.146,115.923 L248.697,102.889 L249.229,103.82 L239.919,112.332 L248.431,116.588 L249.229,117.386 z" fill="#63300F"/>
    <path d="M142.43,67.644 C142.43,67.644 200.152,77.486 212.122,89.456 C212.122,89.456 240.451,69.905 240.451,62.191 C240.451,62.191 215.447,44.768 187.118,49.157 C158.789,53.546 142.43,67.644 142.43,67.644 z" fill="#BEAC83"/>
    <path d="M214.13,92.781 L212.534,91.85 C198.436,83.471 149.093,73.23 148.561,73.097 L138.453,67.112 C140.448,67.511 196.973,77.619 213.598,86.264 C217.987,82.407 234.213,68.974 239.533,61.127 L242.858,65.782 C236.208,75.757 216.391,90.919 215.726,91.584 z" fill="#63300F"/>
    <path d="M207.48,145.582 L215.859,141.193 L224.637,143.986 C224.637,143.986 224.903,167.394 217.721,159.68 C213.622,155.519 210.17,150.767 207.48,145.582 z" fill="#FD1A16"/>
    <path d="M233.136,134.144 C232.072,142.789 221.299,148.774 215.979,139.996 L218.905,139.996 C217.176,142.523 215.447,145.183 212.255,145.715 C209.063,146.247 206.004,143.587 203.61,142.257 C204.408,141.459 205.073,140.661 205.871,139.863 C206.802,141.459 218.905,161.276 220.368,156.488 C221.432,153.296 220.368,144.917 221.964,141.725 C222.404,140.917 223.417,140.619 224.225,141.06 C225.033,141.501 225.33,142.513 224.89,143.321 C223.294,146.513 226.353,161.143 221.432,161.808 C213.984,162.872 206.004,147.178 202.945,141.592 C202.582,140.934 202.686,140.116 203.202,139.57 C203.718,139.024 204.528,138.873 205.206,139.198 C206.403,139.863 207.6,140.661 208.797,141.326 C212.255,143.321 213.851,140.927 215.846,138.267 C216.147,137.744 216.705,137.422 217.309,137.422 C217.912,137.422 218.47,137.744 218.772,138.267 C222.363,143.986 229.013,139.464 229.678,134.144 C229.944,132.016 233.402,131.883 233.136,134.144 z" fill="#63300F"/>
    <g>
      <path d="M434.365,84.535 C433.168,65.649 404.706,55.142 404.706,55.142 L402.711,60.994 L402.711,60.994 L385.421,112.199 C380.936,108.873 375.667,106.765 370.126,106.081 C356.56,104.485 344.59,111.135 343.393,120.977 C342.196,130.819 352.304,140.129 365.87,141.725 C379.436,143.321 391.406,136.671 392.603,126.829 C392.945,123.231 391.951,119.633 389.81,116.721 L404.839,71.9 C411.09,74.028 421.198,78.417 425.72,84.934 C432.503,94.776 426.385,107.943 426.385,107.943 C426.385,107.943 435.562,103.421 434.365,84.535 z" fill="#FF8000"/>
      <path d="M369.86,144.784 C368.397,144.784 366.934,144.651 365.471,144.518 C350.442,142.789 339.27,132.149 340.6,120.711 C341.797,110.603 352.437,103.155 366.003,103.155 C367.466,103.155 368.929,103.288 370.392,103.421 C375.187,103.933 379.815,105.475 383.958,107.943 L402.99,51.551 L405.65,52.482 C406.847,52.881 435.841,63.787 437.038,84.269 C438.235,104.751 428.127,110.071 427.595,110.337 L420.679,113.795 L423.871,106.879 C423.871,106.746 429.191,95.042 423.472,86.53 C419.881,81.343 412.167,77.619 406.448,75.358 L392.616,116.455 C394.587,119.684 395.473,123.459 395.143,127.228 C393.933,137.469 383.293,144.784 369.86,144.784 z M366.003,108.608 C355.496,108.608 346.851,114.061 346.053,121.376 C345.122,129.755 354.033,137.735 366.136,139.198 C367.371,139.353 368.615,139.441 369.86,139.464 C380.367,139.464 389.012,134.011 389.81,126.696 C390.024,123.769 389.226,120.858 387.549,118.45 L386.751,117.386 L403.243,68.575 L405.77,69.506 C413.218,72.166 423.193,76.688 427.981,83.604 C429.877,86.378 431.065,89.574 431.439,92.914 C431.757,90.221 431.801,87.503 431.572,84.801 C430.641,70.969 412.952,61.792 406.169,58.866 L386.618,116.854 L383.559,114.46 C379.508,111.368 374.668,109.478 369.594,109.007 C368.416,108.736 367.211,108.602 366.003,108.608 z" fill="#63300F"/>
    </g>
    <g>
      <path d="M35.365,320.743 C28.183,311.965 10.76,316.753 10.76,316.753 L11.824,320.344 L11.824,320.344 L21.134,351.333 C17.784,351.255 14.476,352.082 11.558,353.727 C4.376,357.717 0.918,365.032 3.711,370.219 C6.504,375.406 14.617,376.47 21.799,372.48 C28.981,368.49 32.439,361.175 29.646,355.988 C28.548,354.154 26.86,352.747 24.858,351.998 L16.612,324.866 C20.469,323.802 26.853,322.339 31.375,324.068 C38.158,326.462 39.621,334.974 39.621,334.974 C39.621,334.974 42.56,329.521 35.365,320.743 z" fill="#FEA621"/>
      <path d="M13.021,377.534 C7.834,377.534 3.445,375.273 1.317,371.416 C-2.274,364.899 1.716,355.855 10.228,351.2 C12.496,349.928 14.973,349.072 17.543,348.673 L7.302,314.758 L9.962,314.093 C13.585,313.265 17.285,312.819 21.001,312.763 C28.449,312.763 34.035,314.891 37.493,319.014 C45.473,328.989 42.414,335.506 42.015,336.171 L38.424,342.954 L37.094,335.373 C37.094,335.373 35.631,328.324 30.577,326.462 C28.05,325.531 23.661,325.93 20.203,326.728 L27.252,350.003 C29.347,351.039 31.101,352.654 32.306,354.658 C35.897,361.175 31.907,370.219 23.395,374.874 C20.193,376.56 16.639,377.471 13.021,377.534 z M20.469,353.993 C17.816,354.025 15.212,354.71 12.888,355.988 C7.169,359.18 4.11,365.032 6.105,368.889 C7.302,371.017 9.829,372.214 13.021,372.214 C15.673,372.182 18.277,371.496 20.602,370.219 C26.321,367.027 29.38,361.175 27.385,357.318 C26.608,356.028 25.373,355.078 23.927,354.658 L22.597,354.126 L21.001,353.993 z M14.218,318.748 L15.282,322.472 L15.947,322.339 C19.352,321.278 22.888,320.696 26.454,320.61 C28.445,320.552 30.43,320.868 32.306,321.541 L32.306,321.541 C29.247,318.881 24.592,318.216 21.001,318.216 C18.727,318.162 16.455,318.34 14.218,318.748 z" fill="#63300F"/>
    </g>
    <path d="M353.9,55.408 C352.703,56.073 351.639,56.738 350.442,57.536 C346.909,49.409 341.955,41.977 335.812,35.591 C337.807,33.463 339.935,31.468 342.063,29.606 C343.127,28.675 341.531,27.079 340.467,28.01 C338.339,29.872 336.211,31.867 334.216,33.995 C329.561,29.207 324.64,24.685 319.586,20.163 C323.645,13.724 328.227,7.63 333.285,1.942 C334.216,0.878 332.62,-0.718 331.689,0.346 C326.601,6.086 321.98,12.224 317.87,18.7 Q312.284,13.912 307.097,9.124 C306.65,8.726 305.97,8.746 305.547,9.169 C305.123,9.593 305.103,10.272 305.501,10.72 C309.092,14.045 312.816,17.237 316.673,20.562 C312.357,27.574 309.002,35.134 306.698,43.039 C306.299,44.369 308.427,44.901 308.826,43.571 C311.111,36.019 314.328,28.781 318.402,22.025 C323.368,26.261 328.117,30.745 332.633,35.458 C326.515,41.709 320.929,48.492 314.146,54.078 C313.082,55.009 314.678,56.472 315.742,55.674 C322.392,49.955 328.111,43.305 334.096,37.054 C340.109,43.312 344.932,50.613 348.327,58.6 C342.844,61.869 337.718,65.703 333.032,70.038 C331.968,70.969 333.564,72.565 334.628,71.634 C339.046,67.478 343.908,63.821 349.125,60.728 C350.792,65.38 351.647,70.283 351.652,75.225 C351.652,76.688 353.913,76.688 353.78,75.225 C353.685,69.879 352.742,64.581 350.987,59.531 C352.184,58.733 353.514,58.068 354.711,57.27 C355.093,57.159 355.377,56.838 355.438,56.445 C355.5,56.052 355.329,55.659 354.999,55.437 C354.669,55.215 354.241,55.203 353.9,55.408 z" fill="#FF8000"/>
    <path d="M121.911,80.843 L125.182,76.481 L139.546,87.254 L136.275,91.616 z" fill="#63300F"/>
  </g>
</svg>
